<svg xmlns="http://www.w3.org/2000/svg" viewBox="0 0 1024 1024">
	<path
		d="M243.382635 960.453708c-84.656075 0-153.497976-68.503187-153.497976-152.706961 0-83.755566 68.841901-151.84943 153.497976-151.84943 21.209044 0 38.371936 17.202801 38.371936 38.376029 0 21.24793-17.162892 38.375006-38.371936 38.375006-43.021839 0-76.751035 33.012881-76.751035 75.098395 0 41.857317 34.403554 75.960019 76.751035 75.960019 42.308595 0 76.746942-34.8139 76.746942-77.574796L320.129576 288.386106c0-51.114145 34.32476-96.611361 83.455737-110.663402L787.364023 68.111261c34.961256-10.118452 71.839165-3.222391 100.957343 18.738783 29.117155 21.957081 45.792952 55.460126 45.792952 91.886757l0 512.277316c0 84.618213-68.840878 153.494906-153.497976 153.494906-84.656075 0-153.493883-68.876694-153.493883-153.494906 0-84.656075 68.838831-153.496953 153.493883-153.496953 21.212114 0 38.375006 17.161868 38.375006 38.375006 0 21.210068-17.161868 38.371936-38.375006 38.371936-42.343387 0-76.746942 34.403554-76.746942 76.750011 0 42.34441 34.403554 76.747965 76.746942 76.747965 42.308595 0 76.747965-34.403554 76.747965-76.747965l0-512.277316c0-12.141528-5.54325-23.309892-15.249309-30.579459-9.744945-7.344269-21.962198-9.671267-33.69031-6.29538l-383.739824 109.61042c-16.379039 4.685719-27.808346 19.899212-27.808346 36.913724L396.876518 806.132994C396.876518 891.203508 328.034617 960.453708 243.382635 960.453708"/>
	<path d="M358.465696 422.394193c-16.674775 0-32.04074-11.015891-36.874839-27.882024-5.807263-20.34742 5.995551-41.594327 26.381857-47.402613l402.925792-115.122971c20.273742-5.734608 41.59842 5.959735 47.445592 26.347065 5.808286 20.386306-5.999644 41.594327-26.384927 47.441499l-402.926816 115.122971C365.509113 421.872307 361.989963 422.394193 358.465696 422.394193"/>
</svg>
