<svg viewBox="0 0 1024 1024" xmlns="http://www.w3.org/2000/svg">
	<path d="M633.9949999999999 533.9735000000001l247.28849999999997-116.1045c-29.1285-114.73200000000001-110.0475-208.03949999999998-215.667-254.64600000000002l-31.621499999999997 370.7505zM468.134 398.7485L246.392 238.8005c-74.4255 72.387-119.15999999999998 174.744-115.19999999999999 286.6815 0.35100000000000003 9.918 1.0799999999999998 19.746 2.1689999999999996 29.448l334.773-156.18149999999997zM590.0975000000001 418.481l26.0235-273.0915a380.7495 380.7495 0 0 0-117.594-14.184c-79.47900000000001 2.8125-152.4015 29.781000000000002-211.98149999999998 73.5885l303.552 213.687zM390.05899999999997 489.83750000000003l-247.212 116.86049999999999c29.240999999999996 114.43050000000001 110.02050000000001 207.4905 215.4195 254.0385l31.7925-370.89899999999994zM555.9290000000001 625.8095l221.5035 159.57000000000002c74.53349999999999-72.405 119.3445-174.8295 115.38-286.848a383.8005 383.8005 0 0 0-2.106-28.889999999999997l-334.77750000000003 156.168zM434.609 605.6990000000001l-26.846999999999998 272.8755a380.916 380.916 0 0 0 117.711 14.22c79.3935-2.8125 152.2395-29.718 211.7835-73.44000000000001l-302.64750000000004-213.65550000000002z"/>
</svg>
