<svg viewBox="0 0 1024 1024" xmlns="http://www.w3.org/2000/svg">
	<path d="M777.2 419.6h-30V299.8c-0.6-62-25-120.3-68.9-164.2-44.5-44.5-103.6-69-166.5-69-62.9 0-122 24.5-166.5 69-43.9 43.9-68.3 102.2-68.9 164.2v119.8h-30c-46.5 0-84.2 37.8-84.2 84.2v372c0 46.5 37.8 84.2 84.2 84.2h531c46.5 0 84.2-37.8 84.2-84.2v-372c-0.1-46.4-37.9-84.2-84.4-84.2zM356.3 299.8c1.3-84.7 70.5-153.2 155.5-153.2S666 215.1 667.3 299.8h-0.1v119.8H356.3V299.8z m425.2 576c0 2.3-2 4.2-4.2 4.2h-531c-2.3 0-4.2-2-4.2-4.2v-372c0-2.3 2-4.2 4.2-4.2h531c2.3 0 4.2 2 4.2 4.2v372z"/>
</svg>
