<svg viewBox="0 0 1024 1024" xmlns="http://www.w3.org/2000/svg">
	<path d="M922.8 335.6c-22.6-53.4-54.9-101.3-96.1-142.5-41.2-41.2-89.1-73.5-142.5-96.1-55.3-23.4-114-35.2-174.5-35.2S390.5 73.7 335.2 97c-53.4 22.6-101.3 54.9-142.5 96.1-41.2 41.2-73.5 89.1-96.1 142.5-23.4 55.3-35.2 114-35.2 174.5s11.9 119.2 35.2 174.5c22.6 53.4 54.9 101.3 96.1 142.5 41.2 41.2 89.1 73.5 142.5 96.1 55.3 23.4 114 35.2 174.5 35.2s119.2-11.9 174.5-35.2c53.4-22.6 101.3-54.9 142.5-96.1 41.2-41.2 73.5-89.1 96.1-142.5 23.4-55.3 35.2-114 35.2-174.5s-11.8-119.2-35.2-174.5z m-413 542.8c-203.1 0-368.3-165.2-368.3-368.3s165.2-368.3 368.3-368.3S878.1 307 878.1 510.1 712.8 878.4 509.8 878.4z"/>
	<path d="M742.2 340.5L531.1 462.4v-87.3c0-14.3-7.6-27.5-20-34.6s-27.6-7.1-40 0l-233.8 135c-12.4 7.1-20 20.4-20 34.6s7.6 27.5 20 34.6l233.8 135c6.2 3.6 13.1 5.4 20 5.4s13.8-1.8 20-5.4c12.4-7.1 20-20.3 20-34.6v-87.3l211.2 121.9c6.2 3.6 13.1 5.4 20 5.4s13.8-1.8 20-5.4c12.4-7.1 20-20.3 20-34.6v-270c0-14.3-7.6-27.5-20-34.6-12.4-7.2-27.7-7.2-40.1 0zM451.1 575.8l-113.8-65.7 113.8-65.7v131.4z m271.1 0l-113.8-65.7 113.8-65.7v131.4z"/>
</svg>
