<svg xmlns="http://www.w3.org/2000/svg" viewBox="0 0 1024 1024">
	<path d="M96.7 684.6c22.6 53.4 54.9 101.3 96.1 142.5 41.2 41.2 89.1 73.5 142.5 96.1 55.3 23.4 114 35.2 174.5 35.2s119.2-11.9 174.5-35.2c53.4-22.6 101.3-54.9 142.5-96.1 41.2-41.2 73.5-89.1 96.1-142.5 23.4-55.3 35.2-114 35.2-174.5s-11.9-119.2-35.2-174.5c-22.6-53.4-54.9-101.3-96.1-142.5-41.2-41.2-89.1-73.5-142.5-96.1-55.3-23.4-114-35.2-174.5-35.2S390.6 73.7 335.3 97c-53.4 22.6-101.3 54.9-142.5 96.1-41.2 41.2-73.5 89.1-96.1 142.5-23.4 55.3-35.2 114-35.2 174.5s11.8 119.2 35.2 174.5z m413.1-542.8c203.1 0 368.3 165.2 368.3 368.3S712.8 878.4 509.8 878.4 141.5 713.2 141.5 510.1s165.2-368.3 368.3-368.3z"/>
	<path d="M277.3 679.7l211.2-121.9v87.3c0 14.3 7.6 27.5 20 34.6s27.6 7.1 40 0l233.8-135c12.4-7.1 20-20.4 20-34.6s-7.6-27.5-20-34.6l-233.8-135c-6.2-3.6-13.1-5.4-20-5.4s-13.8 1.8-20 5.4c-12.4 7.1-20 20.3-20 34.6v87.3L277.3 340.5c-6.2-3.6-13.1-5.4-20-5.4s-13.8 1.8-20 5.4c-12.4 7.1-20 20.3-20 34.6v270c0 14.3 7.6 27.5 20 34.6 12.4 7.2 27.6 7.2 40 0z m291.1-235.3l113.8 65.7-113.8 65.7V444.4z m-271.1 0l113.8 65.7-113.8 65.7V444.4z"/>
</svg>