<svg xmlns="http://www.w3.org/2000/svg" viewBox="0 0 1024 1024">
	<path d="M144.426667 298.538667a258.858667 258.858667 0 0 1 195.242666-19.925334h0.042667c52.565333 15.445333 81.322667 47.36 95.445333 82.773334 12.8 32.170667 12.8 65.536 12.8 84.906666V693.333333a32 32 0 0 1-64 0v-12.8a398.506667 398.506667 0 0 1-16.896 9.472c-40.618667 21.546667-99.285333 43.434667-160.298666 32.469334-67.584-12.16-109.909333-68.053333-119.466667-125.909334-9.770667-58.922667 13.482667-125.354667 81.152-157.738666 61.44-29.44 127.573333-26.837333 175.872-18.261334 14.592 2.602667 27.861333 5.802667 39.381333 9.002667-0.554667-14.976-2.346667-30.293333-8.021333-44.458667-7.082667-17.792-20.949333-35.413333-53.930667-45.056a194.986667 194.986667 0 0 0-146.389333 14.506667 32 32 0 1 1-30.933333-56.021333zM384 496.597333a357.632 357.632 0 0 0-50.816-13.013333c-42.069333-7.466667-92.8-8.277333-137.045333 12.928-38.016 18.218667-51.541333 54.186667-45.653334 89.6 6.016 36.437333 31.616 66.901333 67.669334 73.386667 40.021333 7.210667 83.072-6.997333 118.954666-26.026667a353.962667 353.962667 0 0 0 46.848-29.952v-106.922667zM733.44 257.706667l-0.128 0.298666-0.469333 1.194667-1.877334 4.693333a918.272 918.272 0 0 0-13.226666 34.901334h146.218666a32 32 0 0 1 0 64h-166.954666c-4.949333 16.64-8.448 31.146667-12.373334 57.685333a266.026667 266.026667 0 0 1 90.922667 0.512 32 32 0 0 1 59.434667 18.773333c51.968 24.661333 94.165333 69.845333 102.058666 136.277334 14.165333 119.168-79.232 181.034667-114.730666 204.544l-4.906667 3.285333a32 32 0 0 1-35.797333-53.077333l2.901333-1.92c37.290667-25.088 98.346667-66.133333 88.96-145.28-4.010667-33.621333-22.442667-59.818667-50.261333-77.482667a363.605333 363.605333 0 0 1-25.386667 61.226667c-23.082667 43.989333-58.154667 88.618667-104.576 112.213333a147.541333 147.541333 0 0 1-88.32 15.317333c-58.197333-8.106667-93.866667-52.821333-93.952-105.813333-0.085333-51.541333 32.725333-104.704 94.592-140.586667 3.84-2.176 7.68-4.266667 11.605333-6.229333 4.778667-38.826667 8.661333-60.458667 13.44-79.445333h-86.656a32 32 0 0 1 0-64h106.069334a1160.576 1160.576 0 0 1 23.594666-63.872l0.554667-1.408 0.170667-0.384 0.085333-0.128a32 32 0 0 1 59.008 24.704z m-118.272 261.504c-29.866667 24.106667-40.234667 50.688-40.192 69.717333 0 21.76 12.8 38.912 38.784 42.538667 8.021333 1.152 15.829333 1.066667 23.466667-0.085334a472.192 472.192 0 0 1-22.058667-112.213333z m79.530667 81.450666c17.706667-16.597333 33.578667-38.570667 46.506666-63.104 9.642667-18.346667 16.938667-36.906667 21.888-53.76a200.448 200.448 0 0 0-84.906666 3.541334 386.048 386.048 0 0 0 16.512 113.322666z"/>
</svg>
